<svg width="59" height="64" viewBox="0 0 59 64" fill="none" xmlns="http://www.w3.org/2000/svg">
<path d="M48.6448 28.9796H9.58343C8.31049 28.9796 7.27856 30.1001 7.27856 31.4823V31.7458C7.27856 33.128 8.31049 34.2486 9.58343 34.2486H48.6448C49.9177 34.2486 50.9497 33.128 50.9497 31.7458V31.4823C50.9497 30.1001 49.9177 28.9796 48.6448 28.9796Z" fill="#231F20"/>
<path d="M48.6448 42.152H9.58343C8.31049 42.152 7.27856 43.2726 7.27856 44.6548V44.9183C7.27856 46.3005 8.31049 47.421 9.58343 47.421H48.6448C49.9177 47.421 50.9497 46.3005 50.9497 44.9183V44.6548C50.9497 43.2726 49.9177 42.152 48.6448 42.152Z" fill="#231F20"/>
<path d="M48.6448 15.807H9.58343C8.31049 15.807 7.27856 16.9275 7.27856 18.3098V18.5732C7.27856 19.9555 8.31049 21.076 9.58343 21.076H48.6448C49.9177 21.076 50.9497 19.9555 50.9497 18.5732V18.3098C50.9497 16.9275 49.9177 15.807 48.6448 15.807Z" fill="#231F20"/>
</svg>
